<?xml version="1.0" standalone="no"?>
<!DOCTYPE svg PUBLIC "-//W3C//DTD SVG 20010904//EN"
 "http://www.w3.org/TR/2001/REC-SVG-20010904/DTD/svg10.dtd">
<svg version="1.0" xmlns="http://www.w3.org/2000/svg"
 width="512.000000pt" height="512.000000pt" viewBox="0 0 512.000000 512.000000"
 preserveAspectRatio="xMidYMid meet">
<metadata>
Created by potrace 1.14, written by Peter Selinger 2001-2017
</metadata>
<g transform="translate(0.000000,512.000000) scale(0.100000,-0.100000)"
fill="#000000" stroke="none">
<path d="M2820 4719 c-36 -4 -90 -10 -120 -14 -224 -26 -522 -119 -735 -230
-70 -36 -251 -149 -265 -165 -3 -3 -25 -21 -50 -40 -129 -99 -294 -276 -389
-419 -219 -328 -337 -668 -378 -1096 -14 -150 -6 -595 12 -625 2 -3 6 -27 9
-54 26 -192 98 -429 187 -616 253 -531 708 -897 1290 -1038 117 -29 182 -40
344 -61 70 -9 478 -7 525 2 14 3 50 8 80 11 227 25 547 108 785 203 114 46
108 28 59 188 -69 220 -69 220 -90 218 -10 0 -53 -13 -94 -28 -133 -47 -350
-101 -475 -119 -23 -4 -50 -8 -60 -10 -21 -4 -120 -15 -195 -21 -128 -11 -344
-4 -467 15 -218 33 -489 132 -643 234 -251 166 -452 399 -573 665 -71 157
-140 388 -154 516 -3 28 -6 52 -8 55 -23 37 -22 603 0 640 1 3 6 28 9 55 4 28
15 86 26 130 109 460 371 800 762 989 137 66 263 110 373 131 17 3 68 12 115
21 182 35 619 24 840 -21 14 -3 40 -8 58 -11 72 -12 275 -65 382 -99 61 -20
113 -35 115 -33 2 2 36 86 75 187 82 210 86 183 -36 238 -134 60 -360 130
-509 158 -48 9 -215 34 -275 41 -82 9 -456 12 -530 3z"/>
</g>
</svg>
